HIERARCHY
ROOT root
{
	OFFSET	0	13.1	24.9
	CHANNELS 6  Xposition Yposition Zposition Xrotation Yrotation Zrotation
	JOINT spine_1
	{
		OFFSET	0	9.99999	0
		CHANNELS 3  Xrotation Yrotation Zrotation
		JOINT spine_2
		{
			OFFSET	0	112	-10
			CHANNELS 3  Xrotation Yrotation Zrotation
			JOINT spine_3
			{
				OFFSET	0	206.5	19.3
				CHANNELS 3  Xrotation Yrotation Zrotation
				JOINT spine_4
				{
					OFFSET	0	110.4	14.6
					CHANNELS 3  Xrotation Yrotation Zrotation
					JOINT neck_1
					{
						OFFSET	0	71.8	-50.3
						CHANNELS 3  Xrotation Yrotation Zrotation
						JOINT neck_2
						{
							OFFSET	0	86.2	-25.8
							CHANNELS 3  Xrotation Yrotation Zrotation
							JOINT head_ee
							{
								OFFSET	0	179.8	-8.7
								CHANNELS 3  Xrotation Yrotation Zrotation
								End Site
								{
									OFFSET	1	0	0
								}
							}
						}
					}
					JOINT left_clavicle
					{
						OFFSET	-43.2	22.4	-70.8
						CHANNELS 3  Xrotation Yrotation Zrotation
						JOINT left_shoulder
						{
							OFFSET	-93.9	-5.79999	48.7
							CHANNELS 3  Xrotation Yrotation Zrotation
							JOINT left_elbow
							{
								OFFSET	-291.4	-30.8	15.2
								CHANNELS 3  Xrotation Yrotation Zrotation
								JOINT left_lowarm_twist
								{
									OFFSET	-110.7	-3.89999	13.6
									CHANNELS 3  Xrotation Yrotation Zrotation
									JOINT left_hand
									{
										OFFSET	-110.7	-3.89999	13.6
										CHANNELS 3  Xrotation Yrotation Zrotation
										JOINT left_ee
										{
											OFFSET	-80.8	-5.10001	12.1
											CHANNELS 3  Xrotation Yrotation Zrotation
											End Site
											{
												OFFSET	1	0	0
											}
										}
									}
								}
							}
						}
					}
					JOINT right_clavicle
					{
						OFFSET	43.2	22.4	-70.8
						CHANNELS 3  Xrotation Yrotation Zrotation
						JOINT right_shoulder
						{
							OFFSET	93.9	-5.79999	48.7
							CHANNELS 3  Xrotation Yrotation Zrotation
							JOINT right_elbow
							{
								OFFSET	291.4	-30.8	15.2
								CHANNELS 3  Xrotation Yrotation Zrotation
								JOINT right_lowarm_twist
								{
									OFFSET	110.7	-3.89999	13.6
									CHANNELS 3  Xrotation Yrotation Zrotation
									JOINT right_hand
									{
										OFFSET	110.7	-3.89999	13.6
										CHANNELS 3  Xrotation Yrotation Zrotation
										JOINT right_ee
										{
											OFFSET	80.8	-5.10001	12.1
											CHANNELS 3  Xrotation Yrotation Zrotation
											End Site
											{
												OFFSET	1	0	0
											}
										}
									}
								}
							}
						}
					}
				}
			}
		}
	}
	JOINT left_hip
	{
		OFFSET	-82.8	-127.5	0.300001
		CHANNELS 3  Xrotation Yrotation Zrotation
		JOINT left_knee
		{
			OFFSET	-28.2	-396.7	2.2
			CHANNELS 3  Xrotation Yrotation Zrotation
			JOINT left_ankle
			{
				OFFSET	-11.7	-411.3	35.4
				CHANNELS 3  Xrotation Yrotation Zrotation
				JOINT left_toes
				{
					OFFSET	0	-60	-88.6
					CHANNELS 3  Xrotation Yrotation Zrotation
					JOINT left_foot_ee
					{
						OFFSET	-22.5	-16.5	-42.2
						CHANNELS 3  Xrotation Yrotation Zrotation
						End Site
						{
							OFFSET	1	0	0
						}
					}
				}
			}
		}
	}
	JOINT right_hip
	{
		OFFSET	82.8	-127.5	0.300001
		CHANNELS 3  Xrotation Yrotation Zrotation
		JOINT right_knee
		{
			OFFSET	28.2	-396.7	2.2
			CHANNELS 3  Xrotation Yrotation Zrotation
			JOINT right_ankle
			{
				OFFSET	11.7	-411.3	35.4
				CHANNELS 3  Xrotation Yrotation Zrotation
				JOINT right_toes
				{
					OFFSET	0	-60	-88.6
					CHANNELS 3  Xrotation Yrotation Zrotation
					JOINT right_foot_ee
					{
						OFFSET	22.5	-16.5	-42.2
						CHANNELS 3  Xrotation Yrotation Zrotation
						End Site
						{
							OFFSET	1	0	0
						}
					}
				}
			}
		}
	}
}
MOTION
Frames: 16
Frame Time: 0.02
2631.86 707.356 -1525.1 3.62693 57.2025 -7.43008 -0.753452 0.40522 2.64787 -0.749582 0.23597 2.66827 -0.735748 -0.364389 2.65379 -0.745571 0.0591454 2.67802 -3.35123 20.3232 -2.47838 -2.60526 39.0182 0.31595 -0.0 0.0 -0.0 1.22943 12.7233 3.54065 7.3641 -8.10926 47.3285 4.93007 -67.7084 3.30827 6.4305 0.181778 -0.800869 -0.264549 3.67187 -0.206915 -0.0 0.0 -0.0 11.2909 21.8251 -22.1736 -26.6959 27.3422 -61.633 0.658038 18.0546 -0.104546 -49.2313 3.98198 -4.6421 -3.99292 -20.331 15.683 0.0 0.0 0.0 -16.028 -1.35083 15.6983 -11.1828 0.296512 1.68785 27.6187 22.1311 -3.76881 4.83559 -0.0 -0.0 -0.0 0.0 -0.0 32.765 32.868 -15.0752 3.1154 0.140772 0.457241 -24.2943 -9.22311 -3.6543 1.31878 -0.0 -0.0 0.0 0.0 0.0 
2616.74 706.454 -1525.49 3.47243 57.7604 -7.45452 -1.17247 0.402572 2.73818 -1.16833 0.227586 2.75823 -1.15389 -0.412631 2.73669 -1.16434 0.0245835 2.76749 -2.50338 19.8465 -2.14284 -1.67041 37.7327 0.30278 -0.0 0.0 -0.0 1.2274 12.9509 3.55685 6.32179 -8.01933 47.8097 5.26587 -68.999 3.62041 5.71725 0.166066 -0.711112 0.0828455 5.02849 2.64763 -0.0 0.0 -0.0 11.327 21.4036 -22.2902 -27.7621 29.3895 -60.4734 0.802698 21.6843 -0.153737 -50.3037 4.10742 -4.69869 -3.57304 -15.9388 15.6936 0.0 0.0 0.0 -16.3904 -1.07026 16.2484 -12.2515 0.307486 1.85147 28.9658 20.1246 -3.88937 5.83449 -0.0 -0.0 -0.0 0.0 -0.0 32.7266 33.0019 -14.9161 0.502827 0.0210316 0.0742957 -24.1568 -10.3341 -3.63507 -2.48934 0.0 0.0 0.0 0.0 0.0 
2593.98 705.971 -1538.09 3.86219 58.4133 -8.84627 -1.11872 0.424636 3.01145 -1.11371 0.232239 3.03234 -1.09731 -0.468229 3.00499 -1.10991 0.0120012 3.04119 -0.690495 18.9143 -3.0487 0.410513 36.3999 -1.39361 -0.0 0.0 -0.0 1.15012 13.2223 3.45286 5.35449 -7.88731 48.0692 4.75482 -66.9729 3.14654 4.8995 0.146677 -0.608451 0.425877 6.44845 5.4768 -0.0 0.0 -0.0 11.5185 22.4636 -22.6372 -28.8316 30.8032 -60.0791 0.908099 24.2201 -0.19485 -51.1763 4.21026 -4.74301 -3.2877 -12.7156 15.6842 0.0 0.0 0.0 -16.2975 -0.939151 16.4118 -15.9255 0.321904 2.41488 27.6567 18.9473 -3.72104 6.58495 -0.0 -0.0 -0.0 0.0 -0.0 32.7214 33.1375 -14.863 -5.06449 -0.17514 -0.757264 -22.2291 -10.7167 -3.34557 -5.07263 0.0 0.0 0.0 0.0 0.0 
2573.5 702.15 -1540.58 4.69569 58.493 -10.0403 -1.10668 0.565525 3.2362 -1.10093 0.358564 3.26559 -1.07555 -0.397308 3.2611 -1.09037 0.122421 3.28291 0.369337 18.1632 -3.62767 1.58902 35.3141 -2.42783 -0.0 0.0 -0.0 1.10715 13.4813 3.40499 4.20546 -7.87023 48.4787 4.47775 -65.7116 2.89274 4.32591 0.132204 -0.53661 0.692046 7.44224 7.61566 -0.0 0.0 -0.0 11.7591 23.2246 -23.1172 -29.5135 31.8398 -59.7571 0.983162 25.967 -0.226687 -52.0314 4.31167 -4.78491 -3.03506 -10.3823 15.2949 0.0 0.0 0.0 -16.7099 -0.629374 15.2682 -18.4911 0.310543 2.80833 26.6993 18.1383 -3.59895 7.11012 -0.0 -0.0 -0.0 0.0 -0.0 32.7012 33.492 -13.7758 -8.8755 -0.262425 -1.33548 -20.872 -10.9013 -3.14089 -6.88558 0.0 0.0 0.0 0.0 0.0 
2555.01 707.127 -1542.49 4.95385 58.8862 -10.5958 -1.10009 0.69406 3.58797 -1.09305 0.464496 3.6248 -1.05747 -0.375062 3.63513 -1.07585 0.203352 3.64874 0.798189 17.6154 -3.9914 2.04333 34.5511 -2.99614 -0.0 0.0 -0.0 1.05095 13.6743 3.33009 2.7227 -7.88727 49.1006 4.1764 -64.1836 2.61973 3.88467 0.120581 -0.481445 0.898319 8.38923 9.33507 -0.0 0.0 -0.0 12.0961 24.3915 -23.774 -29.7781 32.6268 -59.4994 1.01865 26.7754 -0.242452 -52.6586 4.38644 -4.81467 -2.85903 -8.7487 14.989 0.0 0.0 0.0 -17.088 -0.368353 14.2737 -19.614 0.300032 2.98029 25.7705 17.3022 -3.47998 7.36537 -0.0 -0.0 -0.0 0.0 -0.0 32.6871 33.7383 -12.9942 -11.0403 -0.294818 -1.66605 -19.5977 -10.7345 -2.94763 -8.13251 0.0 0.0 0.0 0.0 0.0 
2534.43 715.842 -1545.45 5.18168 58.9271 -11.7849 -1.22213 0.783169 3.87955 -1.21392 0.534911 3.92143 -1.16972 -0.381895 3.93925 -1.19129 0.244529 3.95014 1.05041 16.8229 -4.82756 2.31937 33.7738 -4.05217 -0.0 0.0 -0.0 1.12195 14.0898 3.48252 1.00747 -7.76441 49.8597 3.62467 -60.8696 2.13001 3.63398 0.113788 -0.450141 1.05157 9.03229 10.5849 -0.0 0.0 -0.0 12.4373 25.1552 -24.4762 -29.608 33.3089 -59.4591 1.02262 26.865 -0.244241 -53.9421 4.54043 -4.87303 -2.74218 -7.65277 14.7755 0.0 0.0 0.0 -17.2603 1.35669 14.1903 -20.3629 0.291148 3.09486 23.8799 15.3676 -3.2361 7.28711 -0.0 -0.0 -0.0 0.0 -0.0 30.1527 34.7481 -11.6875 -8.39085 -0.253463 -1.26165 -18.0733 -8.52577 -2.7148 -9.58627 0.0 0.0 0.0 0.0 0.0 
2517.31 715.187 -1557.13 5.36314 59.8153 -11.9523 -1.11279 0.827473 3.94876 -1.1043 0.574732 3.99331 -1.05658 -0.351668 4.01906 -1.079 0.286952 4.02419 1.64523 16.0097 -5.91079 3.01404 33.1237 -5.49944 -0.0 0.0 -0.0 0.773193 14.3721 2.94296 -0.542087 -7.6277 49.998 3.20845 -57.8099 1.77184 3.45969 0.108985 -0.428396 1.15948 9.46219 11.4547 -0.0 0.0 -0.0 12.7128 25.7427 -25.0445 -28.8354 33.9586 -59.2123 0.990105 26.126 -0.229736 -54.9212 4.65875 -4.91521 -2.65241 -6.88374 14.5658 0.0 0.0 0.0 -17.0344 2.64434 14.0384 -21.0173 0.282159 3.19488 22.458 14.0056 -3.05408 7.06182 -0.0 -0.0 -0.0 0.0 -0.0 27.3139 35.5856 -10.7032 -7.6431 -0.238412 -1.14789 -17.0166 -6.97566 -2.55569 -10.1218 0.0 0.0 0.0 0.0 0.0 
2493.95 728.177 -1565.16 7.14997 59.8133 -14.419 -1.06752 0.857515 4.16151 -1.05809 0.591211 4.20753 -1.00632 -0.380839 4.23172 -1.03118 0.291643 4.23879 1.96061 15.3743 -6.89181 3.41237 32.7628 -6.74462 -0.0 0.0 -0.0 0.690163 14.5798 2.82898 -3.77301 -7.19737 51.125 2.79554 -54.1565 1.42942 3.20545 0.101859 -0.396701 1.06734 8.73911 10.578 -0.0 0.0 -0.0 13.1192 26.1593 -25.9338 -27.7254 34.6648 -59.4663 0.934243 24.8342 -0.205703 -56.1935 4.81351 -4.96699 -2.64659 -7.24071 14.3443 0.0 0.0 0.0 -15.6192 4.17464 13.0682 -26.2034 0.170662 3.98263 21.4683 12.8804 -2.92645 7.14306 -0.0 -0.0 -0.0 0.0 -0.0 22.9125 36.3772 -8.81492 -7.50891 -0.235553 -1.1275 -15.1091 -5.94169 -2.26768 -10.3174 0.0 0.0 0.0 0.0 0.0 
2472.42 727.433 -1574.43 9.18841 59.8194 -16.521 -1.33112 0.84198 4.2643 -1.32119 0.569184 4.30912 -1.26896 -0.445355 4.32364 -1.29496 0.242409 4.33973 1.56949 14.7183 -7.2384 2.92711 31.9373 -7.0395 -0.0 0.0 -0.0 0.200983 15.0833 2.09585 -6.19223 -7.19465 51.7022 2.57307 -51.8756 1.25167 3.86254 0.119987 -0.47868 1.04912 7.467 9.97458 -0.0 0.0 -0.0 13.29 25.5222 -26.4044 -26.7286 35.2579 -59.7111 0.896686 23.9501 -0.190192 -58.0953 5.04687 -5.03794 -2.86086 -7.5438 15.6325 0.0 0.0 0.0 -16.5489 6.42925 12.5943 -30.5632 0.022083 4.63508 21.3931 12.03 -2.91309 7.44891 -0.0 -0.0 -0.0 0.0 -0.0 20.2954 36.8057 -7.85254 -7.56178 -0.236685 -1.13553 -12.075 -4.61035 -1.80945 -10.696 0.0 0.0 0.0 0.0 0.0 
2452.55 733.264 -1584.54 10.7998 58.6854 -19.0098 -1.52653 1.01487 4.75307 -1.51424 0.710727 4.80784 -1.44202 -0.437763 4.84026 -1.47455 0.331235 4.84869 -0.0943513 15.6551 -5.28612 0.938786 32.2244 -4.27678 -0.0 0.0 -0.0 -0.697683 17.2312 0.943365 -8.92315 -7.96705 51.7645 2.39314 -49.8439 1.1121 4.32038 0.132061 -0.535918 1.04243 6.50636 9.56113 -0.0 0.0 -0.0 13.512 25.115 -26.9675 -24.8697 35.9514 -59.4708 0.932333 24.7895 -0.204902 -59.4592 5.21557 -5.08402 -3.21556 -7.91697 17.8448 0.0 0.0 0.0 -16.7522 7.91954 11.5722 -33.8092 -0.120584 5.11267 20.7047 11.8459 -2.8275 6.84375 -0.0 -0.0 -0.0 0.0 -0.0 16.4633 37.0676 -6.27004 -8.23931 -0.250533 -1.23858 -6.99532 -3.62178 -1.0422 -10.2129 0.0 0.0 0.0 0.0 0.0 
2439.38 740.564 -1592.7 12.1288 58.1156 -21.1798 -1.55663 1.00855 5.09273 -1.54246 0.682885 5.14639 -1.46682 -0.546882 5.16257 -1.50389 0.274183 5.18416 -1.68157 16.8286 -3.89634 -0.861956 33.4569 -2.16722 -0.0 0.0 -0.0 -1.31457 18.717 0.211824 -11.7894 -9.67412 51.9696 2.20014 -47.4565 0.967186 5.59209 0.163193 -0.695382 1.10864 5.00898 9.42003 -0.0 0.0 -0.0 13.6936 24.8327 -27.4234 -23.0261 36.5513 -59.3387 0.956238 25.3461 -0.21503 -60.0292 5.28639 -5.10209 -3.4673 -8.25504 19.3868 0.0 0.0 0.0 -16.6641 9.85399 9.22775 -35.4322 -0.202023 5.3483 17.3139 11.8523 -2.39973 5.98993 -0.0 -0.0 -0.0 0.0 -0.0 8.79258 37.1832 -2.53798 -9.30145 -0.269786 -1.40042 2.22483 -2.56166 0.325425 -9.11771 0.0 0.0 0.0 0.0 0.0 
2424.72 730.805 -1602.96 13.74 58.1834 -22.9862 -1.59796 0.852189 5.23896 -1.58285 0.51757 5.2824 -1.52045 -0.745275 5.25519 -1.55895 0.0928251 5.30682 -3.27852 17.838 -2.44942 -2.69974 34.4248 0.00464113 -0.0 0.0 -0.0 -1.66687 18.1636 -0.406273 -14.0294 -11.2496 51.5669 1.90269 -43.3011 0.75533 7.32691 0.199937 -0.913936 1.15426 3.97154 9.31866 -0.0 0.0 -0.0 13.9511 24.6106 -28.0518 -20.9978 37.2161 -60.1876 0.97806 25.8498 -0.224459 -60.4328 5.33662 -5.11445 -3.64456 -8.48409 20.4836 0.0 0.0 0.0 -18.5214 13.0127 9.51814 -36.8902 -0.280868 5.55799 14.9065 10.3852 -2.08293 4.9437 -0.0 -0.0 -0.0 0.0 -0.0 4.30646 36.9447 -0.79382 -5.93936 -0.198577 -0.88948 8.52997 -1.60192 1.22607 -8.83541 0.0 0.0 0.0 0.0 0.0 
2410.43 748.099 -1611.78 17.8062 58.3884 -28.1528 -1.94708 0.798168 5.68176 -1.92923 0.435611 5.72086 -1.86731 -0.963732 5.65611 -1.91192 -0.0598915 5.73705 -5.45242 18.506 -1.13807 -5.2142 35.0276 2.18831 -0.0 0.0 -0.0 -1.74291 17.9197 -0.561149 -16.1953 -12.738 51.7685 1.71542 -40.3534 0.630401 8.30018 0.217648 -1.037 1.17167 3.25985 9.15499 -0.0 0.0 -0.0 14.1191 24.4378 -28.4662 -19.0681 37.7746 -60.5585 0.994739 26.2319 -0.231781 -60.6158 5.35944 -5.11994 -3.76954 -8.64532 21.2605 0.0 0.0 0.0 -19.5369 17.3597 11.0176 -37.4429 -0.312155 5.63697 12.2426 9.3892 -1.72696 3.39307 -0.0 -0.0 -0.0 0.0 -0.0 1.42588 36.5125 -0.511529 -3.25014 -0.120108 -0.484266 13.0395 -0.892923 1.84602 -8.52177 0.0 0.0 0.0 0.0 0.0 
2394.69 745.359 -1612.85 17.4441 57.7795 -28.0972 -2.12096 0.84296 6.00562 -2.10103 0.459814 6.04688 -2.03102 -1.0367 5.97533 -2.0808 -0.0818009 6.06372 -7.01542 18.9481 -0.178748 -7.02782 35.4147 3.7787 -0.0 0.0 -0.0 -1.745 17.763 -0.589516 -17.7095 -13.8006 51.9645 1.59243 -38.2651 0.552473 8.98286 0.228822 -1.12349 1.18421 2.7622 9.04222 -0.0 0.0 -0.0 14.2421 24.382 -28.7623 -16.8429 38.3901 -60.634 1.0199 26.8036 -0.243015 -60.7785 5.37972 -5.12476 -3.86927 -8.78468 21.8763 0.0 0.0 0.0 -19.8419 20.4421 10.8414 -37.5424 -0.317867 5.65115 10.3897 8.70106 -1.47496 2.30748 -0.0 -0.0 -0.0 0.0 -0.0 -1.37994 36.1751 1.186 -1.4001 -0.0551122 -0.207792 16.2112 -0.398489 2.26748 -8.25575 0.0 0.0 0.0 0.0 0.0 
2389.77 743.675 -1612.81 17.1928 56.792 -28.2936 -2.18669 1.01215 6.1778 -2.16569 0.617766 6.22941 -2.07478 -0.932427 6.19029 -2.12821 0.0549261 6.25961 -6.08994 19.1961 -1.27939 -5.93425 36.5142 2.39968 -0.0 0.0 -0.0 -1.76028 17.5877 -0.641156 -19.6675 -14.4059 52.2373 1.50699 -36.7397 0.500454 9.13821 0.23122 -1.14318 1.19786 2.4152 8.99616 -0.0 0.0 -0.0 14.1773 24.6004 -28.5849 -14.9091 38.9282 -60.2135 1.10682 28.7344 -0.283515 -60.8924 5.39394 -5.1281 -3.95907 -8.88769 22.4457 0.0 0.0 0.0 -17.4071 20.4001 7.45309 -36.9308 -0.283141 5.56381 7.1747 8.3314 -1.02939 0.63729 -0.0 -0.0 -0.0 0.0 -0.0 -6.28508 35.3693 4.4305 -1.02022 -0.0406617 -0.151283 18.8576 0.0787625 2.60917 -7.19308 0.0 0.0 0.0 0.0 0.0 
2380.4 744.467 -1618.7 17.6693 57.2449 -28.8778 -2.23657 0.914912 6.31911 -2.21452 0.51179 6.36428 -2.13311 -1.07555 6.29386 -2.18833 -0.0701603 6.38435 -5.02229 18.8656 -3.21003 -4.6202 37.1415 -0.0297395 -0.0 0.0 -0.0 -1.7342 17.5985 -0.599331 -21.7546 -14.847 52.8537 1.38756 -34.501 0.43088 8.44251 0.220062 -1.05502 1.14809 2.94099 8.87072 -0.0 0.0 -0.0 14.1418 24.7016 -28.49 -12.569 39.4532 -60.8982 1.17168 30.1305 -0.315392 -60.9451 5.40052 -5.12963 -4.16671 -10.8593 22.7132 0.0 0.0 0.0 -18.1107 24.7022 6.34057 -33.8406 -0.122095 5.11725 4.97278 6.31271 -0.718614 -1.15335 0.0 0.0 -0.0 0.0 -0.0 -7.76041 34.5964 4.5447 -0.15893 -0.00651168 -0.0235201 20.4203 1.23431 2.81214 -7.46976 0.0 0.0 0.0 0.0 0.0 
